<svg width="1929" height="506" viewBox="0 0 1929 506" fill="none" xmlns="http://www.w3.org/2000/svg">
<path d="M157.883 222.148V177.611H0V184.058H19.4205C23.849 184.058 26.0836 186.312 26.0836 190.782V343.498C26.0836 348.125 23.849 350.459 19.4205 350.459H0V356.906H88.4078V350.459H59.8053V269.651H80.7696C85.6857 269.651 90.3174 270.482 94.5834 272.143C98.8494 273.805 102.547 276.138 105.716 279.105C108.885 282.111 111.322 285.631 113.11 289.665C114.898 293.739 115.791 298.169 115.791 302.955H121.683V230.098H115.791C115.791 234.924 114.898 239.354 113.11 243.388C111.322 247.462 108.844 250.943 105.716 253.83C102.547 256.717 98.8494 259.012 94.5834 260.673C90.3174 262.334 85.7263 263.165 80.7696 263.165H59.8053V184.097H113.719C120.383 184.097 126.152 185.086 131.108 187.104C136.025 189.081 140.087 191.81 143.256 195.291C146.425 198.772 148.741 202.846 150.285 207.474C151.829 212.101 152.601 217.006 152.601 222.148H157.883Z" fill="white"/>
<path d="M194.782 279.859L218.549 218.907L245.364 279.859H194.782ZM237.198 178.602H225.172L160.044 344.252C159.191 346.585 158.257 348.326 157.241 349.473C156.225 350.62 154.763 351.213 152.894 351.213H135.789V357.937H188.931V351.213H166.951L191.978 286.543H248.452L274.008 344.489C274.333 345.834 274.536 346.665 274.536 346.981C274.536 349.789 272.139 351.213 267.385 351.213H249.224V357.937H334.585V351.213H313.905L237.198 178.602Z" fill="white"/>
<path d="M498.711 336.923C491.032 345.783 479.453 350.253 463.973 350.253H415.91V269.643H436.712C441.668 269.643 446.259 270.474 450.525 272.135C454.791 273.796 458.489 276.13 461.617 279.096C464.745 282.102 467.224 285.623 469.011 289.657C470.799 293.731 471.693 298.161 471.693 302.947H477.584V230.09H471.693C471.693 234.915 470.799 239.345 469.011 243.38C467.224 247.454 464.745 250.934 461.617 253.822C458.448 256.709 454.751 259.003 450.525 260.664C446.259 262.326 441.668 263.156 436.712 263.156H415.91V184.049H467.508C480.103 184.049 489.691 187.372 496.273 193.977C502.814 200.622 506.105 209.72 506.105 221.348H511.956V177.602H356.876V184.049H376.297C380.725 184.049 382.96 186.304 382.96 190.774V343.489C382.96 348.117 380.725 350.451 376.297 350.451H356.876V356.898H516.831V301.919H510.209C510.209 316.395 506.349 328.063 498.711 336.923Z" fill="white"/>
<path d="M670.628 184.089H691.308C695.736 184.089 697.971 186.344 697.971 190.813V306.981L589.614 177.602H535.7V184.049H553.089C557.518 184.049 559.712 186.304 559.712 190.774V343.489C559.712 348.117 557.477 350.451 553.089 350.451H535.7V356.898H593.19V350.174H567.878V202.244L695.614 356.937H706.584V183.812H730.596V177.602H670.546V184.089H670.628Z" fill="white"/>
<path d="M786.43 278.859L810.197 217.907L837.012 278.859H786.43ZM905.512 350.213L828.846 177.602H816.861L751.692 343.252C750.839 345.585 749.905 347.326 748.889 348.473C747.873 349.62 746.411 350.213 744.542 350.213H727.437V356.937H780.579V350.213H758.599L783.626 285.543H840.1L865.656 343.489C866.021 344.794 866.184 345.625 866.184 345.981C866.184 348.789 863.787 350.213 859.033 350.213H840.913V356.937H926.233V350.213H905.512Z" fill="white"/>
<g clip-path="url(#clip0)">
<path d="M1766.96 74.3486C1766.96 59.0788 1769.75 21.6001 1788.03 16.7271C1794.73 14.9455 1817.18 14.5224 1819.86 47.5594C1820.85 59.8598 1820.63 70.5738 1816.41 90.5701C1811.38 114.414 1795.58 128.269 1766.92 144.392L1767.28 99.8036C1767.28 99.8036 1766.92 81.9062 1766.92 74.3486H1766.96ZM1623.06 308.341C1621.22 319.377 1618.45 328.036 1614.74 334.316C1611.06 340.637 1603.97 345.453 1597.57 345.315C1592.1 345.169 1576.82 347.015 1576.45 325.791C1576.07 300.018 1587.8 279.575 1625.56 250.776C1626.02 258.749 1626.02 262.767 1626.02 271.675C1626.02 288.865 1624.9 297.326 1623.06 308.333V308.341ZM1076.92 321.804C1076.92 328.988 1073.91 335.154 1067.99 340.271C1062.19 345.362 1054.61 348.116 1046.79 347.975C1039.16 347.975 1033 344.835 1028.37 338.555C1023.74 332.274 1021.48 323.342 1021.48 311.806C1021.48 294.901 1026.09 282.143 1035.3 273.53C1044.51 264.918 1058.39 259.985 1076.92 258.732V321.804ZM1346 226.2C1346.62 217.945 1348.08 209.77 1350.36 201.794C1352.5 194.874 1355.67 189.353 1359.89 185.231C1364.08 181.163 1369.67 179.097 1376.53 179.097C1383.39 179.097 1388.73 181.147 1392.56 185.231C1396.39 189.315 1399.16 194.871 1400.93 201.794C1402.79 209.818 1403.91 217.985 1404.28 226.2C1404.84 235.588 1405.12 245.513 1405.12 256.031H1344.9C1344.9 245.513 1345.29 235.588 1346.07 226.2H1346ZM1924.64 337.164C1921.4 339.367 1918.02 341.369 1914.52 343.159C1911.17 344.835 1908.51 345.673 1906.38 345.673C1902.67 345.673 1899.97 344.046 1898.23 340.637C1896.49 337.229 1895.72 330.875 1895.72 321.357V234.473C1895.82 225.137 1894.61 215.831 1892.12 206.814C1890 199.147 1886.23 192.002 1881.07 185.849C1875.79 179.915 1869.12 175.302 1861.62 172.402C1853.71 169.148 1844.22 167.54 1833.14 167.578C1819.71 167.578 1807.5 169.698 1796.52 173.939C1785.55 178.181 1775.85 185.166 1767.42 194.896V163.168C1799 145.816 1816.84 130.384 1828.63 102.862C1839.4 77.92 1839.08 63.8136 1839.08 45.9162C1839.08 3.82474 1786.05 -10.2166 1755.52 7.34725C1721.32 27.01 1718.9 75.4956 1718.29 100.471C1717.83 119.027 1718.12 171.027 1718.12 171.027C1706.29 177.031 1670.83 199.15 1664.94 202.616C1664 200.694 1662.88 198.863 1661.59 197.149C1655.76 188.386 1647.89 181.072 1638.62 175.794C1629.13 170.27 1617.5 167.513 1603.8 167.513C1577.12 167.513 1555.73 178.026 1539.62 199.053V168.66C1539.62 168.66 1537.64 165.031 1531.79 165.617C1490.28 169.685 1490.18 182.701 1490.18 182.701L1489.81 242.316C1487.9 249.735 1485.91 257.04 1484.07 263.589C1471.17 309.203 1451.65 333.625 1441.9 338.717C1423.25 348.569 1405.72 349.09 1394.1 349.09C1384.05 349.09 1375.87 346.926 1369.51 342.582C1363.03 338.02 1357.85 331.927 1354.48 324.88C1350.79 317.46 1348.27 308.609 1346.94 298.522C1345.59 287.866 1344.93 277.139 1344.95 266.404H1457.01V252.574C1457.11 240.972 1455.71 229.404 1452.82 218.146C1450.07 207.76 1445.72 198.917 1439.77 191.617C1433.69 184.195 1425.8 178.369 1416.81 174.672C1407.37 170.702 1396.27 168.7 1383.3 168.7C1368.23 168.7 1355.13 171.206 1343.87 176.217C1333.09 180.921 1323.5 187.863 1315.77 196.555C1308.05 205.547 1302.26 215.947 1298.74 227.143C1294.92 238.948 1292.81 244.919 1292.81 258.781C1292.81 262.279 1293 265.737 1293.19 269.129C1289.58 285.831 1283.64 298.871 1273.84 314.629C1260.44 336.049 1250.51 339.523 1246.58 339.555C1242.95 339.555 1237.9 337.57 1236.26 334.186C1230.46 321.894 1231.45 324.717 1231.45 287.751V225.582L1232.18 34.4943C1232.18 34.4943 1230.19 30.866 1224.32 31.4192C1182.8 35.4868 1182.71 48.5031 1182.71 48.5031C1182.71 48.5031 1182.71 221.994 1182.71 263.459C1179.24 283.504 1173.1 297.789 1161.97 315.622C1148.66 337.025 1141.44 340.523 1137.53 340.548C1133.85 340.548 1131.13 338.921 1129.43 335.553C1127.73 332.185 1126.52 330.501 1126.52 320.991V235.571C1126.52 212.728 1120.44 195.858 1108.29 184.963C1096.13 174.067 1078.84 168.619 1056.41 168.619C1047.66 168.564 1038.95 169.536 1030.44 171.515C1022.81 173.3 1015.38 175.812 1008.26 179.016C1001.8 181.927 995.635 185.404 989.831 189.404C984.684 192.906 979.913 196.905 975.593 201.339L980.761 207.082C983.374 205.073 986.749 202.738 990.811 200.183C995.143 197.469 999.647 195.024 1004.3 192.862C1009.43 190.48 1014.8 188.59 1020.31 187.216C1026.24 185.654 1032.37 184.877 1038.52 184.906C1050.14 184.906 1059.45 188.686 1066.46 196.246C1073.42 203.804 1076.96 215.291 1076.96 230.674V249.857C1067.03 250.008 1057.11 250.779 1047.28 252.167C1035.36 253.711 1023.7 256.763 1012.6 261.246C1001.72 265.493 991.92 271.988 983.885 280.283C975.95 288.483 971.989 299.378 972 312.97C972 328.646 976.657 341.069 986.062 350.302C995.468 359.535 1008.99 364.132 1026.66 364.132C1038.81 364.132 1049.04 361.962 1057.36 357.624C1065.66 353.29 1072.99 347.41 1078.95 340.32C1085.01 355.441 1096.23 363.012 1112.61 363.034C1120.86 363.076 1129.02 361.432 1136.57 358.209C1142.97 355.508 1149.13 350.888 1155.05 344.843C1170 329.785 1178.37 311.847 1182.69 296.227C1183.34 305.558 1184.8 325.783 1188.55 341.475C1192.36 357.298 1205.84 364.172 1222.21 364.172C1230.46 364.225 1238.62 362.586 1246.17 359.365C1253.35 356.463 1259.98 352.434 1265.81 347.438C1280.85 334.178 1290.75 314.141 1295.01 298.513L1295.96 294.771C1296.32 297.498 1296.91 300.192 1297.72 302.825C1300.65 313.993 1305.77 324.507 1312.8 333.788C1319.8 342.896 1328.97 350.223 1339.52 355.142C1350.49 360.403 1363.74 363.034 1379.3 363.034C1397.78 363.034 1419.94 362.968 1446.06 348.439C1466.6 336.993 1480.85 310.554 1490.22 284.065L1490.38 448.982V455.986C1490.38 455.986 1490.38 476.609 1491.82 483.288C1495.33 499.2 1509.16 506.066 1525.58 506.066C1533.85 506.111 1542.03 504.47 1549.61 501.25C1557.15 497.996 1564.88 493.115 1572.87 486.387L1568.48 479.83C1565.22 482.002 1561.84 483.988 1558.35 485.777C1555 487.404 1552.3 488.266 1550.2 488.266C1546.47 488.266 1543.78 486.639 1542.06 483.263C1540.34 479.887 1539.46 473.501 1539.46 463.959V455.962V448.957V228.705C1539.53 222.994 1541.03 217.384 1543.81 212.354C1546.72 206.883 1550.49 201.892 1555 197.564C1559.44 193.262 1564.53 189.631 1570.08 186.793C1575.18 184.081 1580.89 182.628 1586.71 182.563C1595.45 182.563 1602.36 184.694 1607.52 188.916C1612.69 193.138 1616.61 199.053 1619.4 206.594C1622.34 215.081 1624.12 223.903 1624.72 232.838C1582.73 264.061 1561.76 294.21 1562.22 322.829C1562.76 355.102 1577.2 359.576 1590.28 362.993C1617.27 369.997 1638.51 354.475 1654.23 337.4C1669.94 320.324 1677.82 294.397 1677.82 259.489C1677.82 248.482 1677.73 243.219 1675.22 232.285C1674.04 226.997 1673.46 223.507 1671.47 218.789C1677.51 215.193 1707.19 195.302 1718.11 189.746L1718.25 339.897C1718.38 342.591 1717.54 345.245 1715.87 347.398C1714.29 349.326 1711.77 350.294 1708.38 350.294H1678.65V360.284H1793.11V350.294H1767.32V228.331C1767.33 222.423 1768.68 216.59 1771.27 211.247C1776.48 200.356 1785.45 191.578 1796.62 186.435C1802.05 183.892 1808 182.576 1814.03 182.587C1825.4 182.587 1833.66 186.305 1838.81 193.74C1843.96 201.176 1846.53 212.972 1846.52 229.128V313.409C1846.52 313.409 1846.52 334.007 1847.93 340.67C1851.47 356.607 1865.3 363.448 1881.71 363.448C1889.99 363.493 1898.19 361.846 1905.77 358.616C1913.32 355.405 1921.06 350.448 1929 343.745L1924.64 337.164Z" fill="white"/>
</g>
<defs>
<clipPath id="clip0">
<rect x="972" width="957" height="506" fill="white"/>
</clipPath>
</defs>
</svg>
